<?xml version="1.0" encoding="UTF-8"?>
<svg width="128" height="128" version="1.1" viewBox="0 0 33.9 33.9" xmlns="http://www.w3.org/2000/svg">
 <g>
  <path d="m33.9 16.9a16.9 16.9 0 0 1-16.9 16.9 16.9 16.9 0 0 1-17-16.9 16.9 16.9 0 0 1 16.8-17 16.9 16.9 0 0 1 17 16.8z" fill="#e9a76f"/>
  <path d="m28 6.59c-1.62 0.155-3.25 0.303-4.87 0.46-0.304 0.172-0.34 0.681-0.0816 1.14 0.258 0.456 0.714 0.688 1.02 0.518l1.9-0.179-1.52 3.09c-0.621-0.209-1.28-0.326-1.97-0.331-2.17-0.0147-4.09 1.07-5.25 2.73l-1.13 1.8-1.13-1.8-5.17e-4 5.17e-4c-1.16-1.66-3.08-2.74-5.25-2.73-3.49 0.0237-6.32 2.88-6.3 6.37 0.0141 3.11 2.3 5.71 5.27 6.22v1.54h-2.09v1e-3c-0.0018-1.89e-4 -0.00388-4.12e-4 -0.00568-5.16e-4 -0.454 0.0037-0.821 0.457-0.819 1.01 0.00204 0.555 0.371 1 0.824 1h2.09l0.00103 2.25c0.00254 0.556 0.451 1 1 1 0.552-0.0014 0.996-0.452 0.998-1.01 0.0011-0.75 5.17e-4 -1.5 5.17e-4 -2.25h2.1c0.524-0.0013 0.822-0.543 0.822-1.02-0.0044-0.553-0.372-0.998-0.824-0.998v-1e-3h-2.09v-1.51c2-0.269 3.24-1.38 3.99-2.3l1.42-2.26 1.42 2.26c0.866 1.04 2.36 2.35 4.9 2.36 3.49 0.0079 6.34-2.83 6.36-6.32 0.0096-2.11-1.02-3.99-2.61-5.15l1.54-3.14c0.336 0.539 0.682 1.07 1.01 1.61 0.0445 0.348 0.505 0.576 1.03 0.51 0.524-0.0662 0.913-0.402 0.871-0.75zm-18.3 6.59c1.5-0.0102 2.83 0.716 3.65 1.84l1.61 2.57-1.9 3.02c-0.812 0.906-1.99 1.47-3.31 1.48-2.47 0.0055-4.46-1.97-4.47-4.44-0.0112-2.47 1.96-4.46 4.43-4.48zm12.7 0c2.47 0.0168 4.44 2.01 4.43 4.48-0.0112 2.47-2 4.44-4.47 4.44-1.32-3e-3 -2.5-0.572-3.31-1.48l-1.9-3.02 1.61-2.57c0.814-1.13 2.14-1.85 3.65-1.84z" opacity=".2"/>
  <path d="m28 5.53c-1.62 0.155-3.25 0.303-4.87 0.46-0.304 0.172-0.34 0.681-0.0816 1.14 0.258 0.456 0.714 0.688 1.02 0.518l1.9-0.179-1.52 3.09c-0.621-0.209-1.28-0.326-1.97-0.331-2.17-0.0147-4.09 1.07-5.25 2.73l-1.13 1.8-1.13-1.8-5.17e-4 5.17e-4c-1.16-1.66-3.08-2.74-5.25-2.73-3.49 0.0237-6.32 2.88-6.3 6.37 0.0141 3.11 2.3 5.71 5.27 6.22v1.54h-2.09v1e-3c-0.0018-1.89e-4 -0.00388-4.12e-4 -0.00568-5.16e-4 -0.454 0.0037-0.821 0.457-0.819 1.01 0.00204 0.555 0.371 1 0.824 1h2.09l0.00103 2.25c0.00254 0.556 0.451 1 1 1 0.552-0.0014 0.996-0.452 0.998-1.01 0.0011-0.75 5.17e-4 -1.5 5.17e-4 -2.25h2.1c0.524-0.0013 0.822-0.543 0.822-1.02-0.0044-0.553-0.372-0.998-0.824-0.998v-1e-3h-2.09v-1.51c2-0.269 3.24-1.38 3.99-2.3l1.42-2.26 1.42 2.26c0.866 1.04 2.36 2.35 4.9 2.36 3.49 0.0079 6.34-2.83 6.36-6.32 0.0096-2.11-1.02-3.99-2.61-5.15l1.54-3.14c0.336 0.539 0.682 1.07 1.01 1.61 0.0445 0.348 0.505 0.576 1.03 0.51 0.524-0.0662 0.913-0.402 0.871-0.75zm-18.3 6.59c1.5-0.0102 2.83 0.716 3.65 1.84l1.61 2.57-1.9 3.02c-0.812 0.906-1.99 1.47-3.31 1.48-2.47 0.0055-4.46-1.97-4.47-4.44-0.0112-2.47 1.96-4.46 4.43-4.48zm12.7 0c2.47 0.0168 4.44 2.01 4.43 4.48-0.0112 2.47-2 4.44-4.47 4.44-1.32-3e-3 -2.5-0.572-3.31-1.48l-1.9-3.02 1.61-2.57c0.814-1.13 2.14-1.85 3.65-1.84z" fill="#fff"/>
 </g>
</svg>
