<?xml version="1.0" encoding="UTF-8"?>
<svg width="128" height="128" version="1.1" viewBox="0 0 33.9 33.9" xml:space="preserve" xmlns="http://www.w3.org/2000/svg"><g><path d="m33.9 16.9c0 9.35-7.58 16.9-16.9 16.9-9.35 0-16.9-7.58-16.9-16.9 0-9.35 7.58-16.9 16.9-16.9 9.35 0 16.9 7.58 16.9 16.9" fill="#e9a76f"/><path d="m10.5 7.39c-3.95 2.12-6.35 5.87-6.36 9.91-0.00804 4.04 2.38 7.82 6.32 9.98l5.04-6.96 6.48 5.81 6.99-6.34c2.18-1.8 3.3-5.71 0.311-8.65-3.66-3.6-7.06 0.62-7.42 0.877-0.365-0.817-4.25-4.26-7.67-0.49-0.165 0.182-0.313 0.366-0.449 0.549l-3.25-4.7z" opacity=".2"/><g stroke-width=".265"><path d="m5.72 10.9c-0.48 0.749-0.797 1.47-1.05 2.27l2.29 3.3-2.28 3.06c0.25 0.771 0.59 1.52 1.01 2.23l3.9-5.22z" fill="#f4cecd" stroke="#f4cecd" style="-inkscape-stroke:hairline"/><path d="m4.67 13.2c-0.127 0.352-1.05 3.11 0.0113 6.36l2.28-3.06z" fill="#fff" stroke="#fff" style="-inkscape-stroke:hairline"/><path d="m7.03 9.16c-0.632 0.7-0.967 1.2-1.31 1.74l3.88 5.65-3.9 5.21a13.5 11.7 0.945 0 0 1.29 1.77l5.18-6.97z" fill="#d3e8fd" stroke="#d3e8fd" style="-inkscape-stroke:hairline"/><path d="m8.68 7.6c-0.701 0.473-1.48 1.35-1.65 1.56l5.13 7.4-5.18 6.97c0.504 0.562 1.07 1.08 1.68 1.56l6.31-8.47z" fill="#6e553a" stroke="#6e553a" style="-inkscape-stroke:hairline"/><path d="m10.5 6.44c-0.617 0.306-1.19 0.683-1.81 1.16l6.29 9.01-6.31 8.47c0.238 0.187 1.14 0.876 1.78 1.14 2.41-3.19 4.73-6.44 7.08-9.68z" stroke="#000" style="-inkscape-stroke:hairline"/></g><g><path d="m12.9 13.7c-0.584 1.76-0.0865 3.44 0.734 4.69l1.31-1.76-2.05-2.93z" fill-opacity=".2"/><path d="m13.4 11.5c-0.725 1.18-0.892 2.37-0.728 3.45h18.3c0.147-1.12-0.0337-2.32-0.683-3.45z" fill="#f1b014"/><path d="m26 8.65c-2.22 0.0941-3.91 2.14-4.15 2.32-0.129-0.0902-1.47-2.34-4.33-2.28-1.21 0.0247-2.43 0.718-3.15 1.43-0.513 0.511-0.916 1.26-1.11 1.65h17.2c-0.29-0.578-0.695-1.14-1.24-1.68-1.14-1.12-2.26-1.49-3.27-1.44z" fill="#c84747"/><path d="m12.6 14.5c0.101 1.51 0.872 2.85 1.73 3.75h15.1c0.905-0.964 1.54-2.3 1.62-3.75z" fill="#fd5"/><path d="m13.5 17.2c0.395 0.633 0.871 1.17 1.34 1.55l1.79 1.6h10.5l1.77-1.6c0.504-0.416 0.946-0.948 1.3-1.55z" fill="#5cae32"/><path d="m18.7 22.2 3.24 2.9 3.2-2.9z" fill="#269"/><path d="m16.1 19.9 3.13 2.81h5.35l3.1-2.81z" fill="#3b88c3"/></g></g></svg>
