<?xml version="1.0" encoding="UTF-8"?>
<svg width="128" height="128" version="1.1" viewBox="0 0 33.9 33.9" xml:space="preserve" xmlns="http://www.w3.org/2000/svg"><path d="m33.9 16.9c0 9.35-7.58 16.9-16.9 16.9-9.35 0-16.9-7.58-16.9-16.9 0-9.35 7.58-16.9 16.9-16.9 9.35 0 16.9 7.58 16.9 16.9" fill="#e9a76f"/><path d="m21.1 5.83c-0.352 0.0344-0.596 0.497-0.546 1.03 0.0502 0.537 0.376 0.946 0.728 0.914 0.613 0.134 1.86 0.454 2.64 0.645l-3.4 3.41c-1-0.717-2.23-1.14-3.55-1.13-1.29 0.0088-2.49 0.427-3.47 1.13l-0.669-0.669 0.887-0.887-0.0021-0.0025c0.185-0.171 0.29-0.411 0.29-0.662l2e-6 -0.00824c-0.0047-0.5-0.413-0.901-0.913-0.898-0.249 0.00223-0.487 0.107-0.656 0.29l-0.889 0.886-1.47-1.47 1.94-0.463c0.358 0.0654 0.729-0.316 0.83-0.854 0.101-0.537-0.106-1.03-0.463-1.1-1.65 0.392-3.31 0.789-4.96 1.18l-1.19 4.99c0.0755 0.358 0.573 0.558 1.11 0.447 0.539-0.111 0.916-0.491 0.843-0.849l-0.00107-0.0057 0.458-1.93 1.48 1.48-0.904 0.904 5.17e-4 5.17e-4c-0.185 0.172-0.29 0.414-0.289 0.667 0.00216 0.5 0.408 0.903 0.908 0.902 0.251-0.0012 0.489-0.106 0.66-0.29l0.0031 0.0026 0.904-0.904 0.669 0.669c-0.714 0.999-1.13 2.22-1.13 3.54 0.0135 2.98 2.26 5.59 4.84 5.95l2e-6 1.35h-2.56l4e-6 1e-3c-0.0022-1.89e-4 -0.0045-3.82e-4 -0.0067-4.86e-4 -0.556 0.0037-1 0.457-1 1.01 0.0025 0.555 0.453 1 1.01 1 0.853 6e-6 1.71 2e-6 2.56 2e-6l0.0014 2.25c0.0031 0.556 0.552 1 1.23 1 0.675-0.0014 1.22-0.452 1.22-1.01 8.9e-5 -0.75 4.4e-5 -1.5 4.4e-5 -2.25 0.854 5e-6 1.71-9e-6 2.56 4e-6 0.556-0.0011 1.01-0.452 1.01-1.01l-2.6e-5 -0.0093c-0.0054-0.553-0.455-0.998-1.01-0.998l-4e-6 -1e-3 -2.56-1e-6v-1.35c2.77-0.385 4.84-2.99 4.84-5.98l-1.6e-5 -4e-3c-5.2e-5 -0.847-0.185-2.18-1.13-3.5l3.44-3.44c0.199 0.859 0.412 1.72 0.606 2.58-0.0815 0.358 0.289 0.747 0.827 0.871 0.537 0.123 1.04-0.0658 1.12-0.422-0.446-1.89-0.892-3.78-1.34-5.67-1.83-0.446-3.67-0.901-5.5-1.34zm-4.12 7.13c2.51-0.0171 3.83 2.12 3.83 3.81-3e-3 2.1-1.69 3.79-3.79 3.8-2.11 0.0048-3.8-1.68-3.81-3.78-0.0096-2.11 1.67-3.8 3.78-3.82z" opacity=".2"/><path d="m21.1 4.77c-0.352 0.0344-0.596 0.497-0.546 1.03 0.0502 0.537 0.376 0.946 0.728 0.914 0.613 0.134 1.86 0.454 2.64 0.645l-3.4 3.41c-1-0.717-2.23-1.14-3.55-1.13-1.29 0.00879-2.49 0.427-3.47 1.13l-0.669-0.669 0.887-0.887-0.0021-0.00253c0.185-0.171 0.29-0.411 0.29-0.662l2e-6 -0.00824c-0.0047-0.5-0.413-0.901-0.913-0.898-0.249 0.00223-0.487 0.107-0.656 0.29l-0.889 0.886-1.47-1.47 1.94-0.463c0.358 0.0654 0.729-0.316 0.83-0.854 0.101-0.537-0.106-1.03-0.463-1.1-1.65 0.392-3.31 0.789-4.96 1.18l-1.19 4.99c0.0755 0.358 0.573 0.558 1.11 0.447 0.539-0.111 0.916-0.491 0.843-0.849l-0.00107-0.0057 0.458-1.93 1.48 1.48-0.904 0.904 5.17e-4 5.17e-4c-0.185 0.172-0.29 0.414-0.289 0.667 0.00216 0.5 0.408 0.903 0.908 0.902 0.251-0.0012 0.489-0.106 0.66-0.29l0.0031 0.0026 0.904-0.904 0.669 0.669c-0.714 0.999-1.13 2.22-1.13 3.54 0.0135 2.98 2.26 5.59 4.84 5.95l2e-6 1.35h-2.56l4e-6 1e-3c-0.0022-1.89e-4 -0.0045-3.82e-4 -0.0067-4.86e-4 -0.556 0.0037-1 0.457-1 1.01 0.0025 0.555 0.453 1 1.01 1 0.853 6e-6 1.71 2e-6 2.56 2e-6l0.0014 2.25c0.0031 0.556 0.552 1 1.23 1 0.675-0.0014 1.22-0.452 1.22-1.01 8.9e-5 -0.75 4.4e-5 -1.5 4.4e-5 -2.25 0.854 5e-6 1.71-9e-6 2.56 4e-6 0.556-0.0011 1.01-0.452 1.01-1.01l-2.6e-5 -0.0093c-0.0054-0.553-0.455-0.998-1.01-0.998l-4e-6 -1e-3 -2.56-1e-6v-1.35c2.77-0.385 4.84-2.99 4.84-5.98l-1.6e-5 -4e-3c-5.2e-5 -0.847-0.185-2.18-1.13-3.5l3.44-3.44c0.199 0.859 0.412 1.72 0.606 2.58-0.0815 0.358 0.289 0.747 0.827 0.871 0.537 0.123 1.04-0.0658 1.12-0.422-0.446-1.89-0.892-3.78-1.34-5.67-1.83-0.446-3.67-0.901-5.5-1.34zm-4.12 7.13c2.51-0.0171 3.83 2.12 3.83 3.81-3e-3 2.1-1.69 3.79-3.79 3.8-2.11 0.0048-3.8-1.68-3.81-3.78-0.0096-2.11 1.67-3.8 3.78-3.82z" fill="#269"/></svg>
